# xmcd CD database file
#
# Track frame offsets:
#	150
#	11154
#	22754
#	38615
#	51180
#	61711
#	75255
#	84844
#	96575
#	112600
#	127433
#	143197
#	154861
#	167374
#	177774
#	192102
#	206647
#
# Disc length: 2909 seconds
#
# Revision: 0
# Processed by: cddbd v1.4PL0 Copyright (c) Steve Scherf et al.
# Submitted via: CDex 1.51
#
DISCID=cb0b5b11
DTITLE=Jim Smith - Love Songs In The Laundromat
DYEAR=1999
DGENRE=Blues
TTITLE0=You've Got Me Singing The Blues
TTITLE1=Them There Eyes
TTITLE2=I'm Confessin'
TTITLE3=It's A Sin To Tell A Lie
TTITLE4=Marie
TTITLE5=I've Got My Love To Keep Me Warm
TTITLE6=There I've Said It Again
TTITLE7=My Mothers Eyes
TTITLE8=Old Rockin Chair
TTITLE9=You Always Hurt The One You Love
TTITLE10=I Always Get Lucky With You
TTITLE11=Old Greay Bonnet
TTITLE12=The Way You Look Tonight
TTITLE13=Slow Boat To China
TTITLE14=Coney Island Washboard
TTITLE15=Dedicated To You
TTITLE16=It Had To Be You
EXTD=YEAR: 1999
EXTT0=
EXTT1=
EXTT2=
EXTT3=
EXTT4=
EXTT5=
EXTT6=
EXTT7=
EXTT8=
EXTT9=
EXTT10=
EXTT11=
EXTT12=
EXTT13=
EXTT14=
EXTT15=
EXTT16=
PLAYORDER=
